<svg width="20" height="21" viewBox="0 0 20 21" fill="none" xmlns="http://www.w3.org/2000/svg">
<path fill-rule="evenodd" clip-rule="evenodd" d="M10 1.42419C10.9205 1.42419 11.6667 2.17039 11.6667 3.09086H15C16.3807 3.09086 17.5 4.21015 17.5 5.59086V16.4242C17.5 17.8049 16.3807 18.9242 15 18.9242H5C3.61929 18.9242 2.5 17.8049 2.5 16.4242V5.59086C2.5 4.21015 3.61929 3.09086 5 3.09086H8.33333C8.33333 2.17039 9.07953 1.42419 10 1.42419ZM6.66667 4.75753H5C4.53976 4.75753 4.16667 5.13062 4.16667 5.59086V16.4242C4.16667 16.8844 4.53976 17.2575 5 17.2575H15C15.4602 17.2575 15.8333 16.8844 15.8333 16.4242V5.59086C15.8333 5.13062 15.4602 4.75753 15 4.75753H13.3333V5.59086C13.3333 6.0511 12.9602 6.42419 12.5 6.42419H7.5C7.03976 6.42419 6.66667 6.0511 6.66667 5.59086V4.75753Z" fill="#777E90"/>
<path fill-rule="evenodd" clip-rule="evenodd" d="M5.83337 9.75753C5.83337 9.29729 6.20647 8.92419 6.66671 8.92419L13.3334 8.92419C13.7936 8.92419 14.1667 9.29729 14.1667 9.75753C14.1667 10.2178 13.7936 10.5909 13.3334 10.5909L6.66671 10.5909C6.20647 10.5909 5.83337 10.2178 5.83337 9.75753Z" fill="#777E90"/>
<path fill-rule="evenodd" clip-rule="evenodd" d="M5.83337 13.0908C5.83337 12.6305 6.20647 12.2574 6.66671 12.2574L10 12.2574C10.4603 12.2574 10.8334 12.6305 10.8334 13.0908C10.8334 13.551 10.4603 13.9241 10 13.9241L6.66671 13.9241C6.20647 13.9241 5.83337 13.551 5.83337 13.0908Z" fill="#777E90"/>
</svg>
