<svg width="24" height="25" viewBox="0 0 24 25" fill="none" xmlns="http://www.w3.org/2000/svg">
<path fill-rule="evenodd" clip-rule="evenodd" d="M1.99023 16.8049C1.99024 16.4241 2.14494 16.0596 2.41887 15.795L3.44783 14.8012C3.83952 14.4228 4.06001 13.9012 4.05837 13.3566L4.04891 10.2036C4.03567 5.79217 7.60812 2.20898 12.0196 2.20898C16.4216 2.20898 19.9902 5.77757 19.9902 10.1797L19.9902 13.3806C19.9902 13.911 20.2009 14.4197 20.576 14.7948L21.576 15.7948C21.8412 16.06 21.9902 16.4197 21.9902 16.7948C21.9902 17.5758 21.3571 18.209 20.576 18.209H15.9902C15.9902 20.4181 14.1994 22.209 11.9902 22.209C9.7811 22.209 7.99023 20.4181 7.99023 18.209H3.39431C2.61886 18.209 1.99023 17.5804 1.99023 16.8049ZM9.99023 18.209C9.99023 19.3136 10.8857 20.209 11.9902 20.209C13.0948 20.209 13.9902 19.3136 13.9902 18.209H9.99023ZM17.9902 13.3806C17.9902 14.4414 18.4117 15.4588 19.1618 16.209L4.86874 16.209C5.63245 15.455 6.06159 14.425 6.05836 13.3506L6.0489 10.1976C6.03898 6.89308 8.71503 4.20898 12.0196 4.20898C15.3171 4.20898 17.9902 6.88214 17.9902 10.1797L17.9902 13.3806Z" fill="#777E90"/>
</svg>
