<svg width="20" height="21" viewBox="0 0 20 21" fill="none" xmlns="http://www.w3.org/2000/svg">
<path fill-rule="evenodd" clip-rule="evenodd" d="M1.66663 6.42419C1.66663 5.04348 2.78591 3.92419 4.16663 3.92419H15.8333C17.214 3.92419 18.3333 5.04348 18.3333 6.42419V14.7575C18.3333 16.1382 17.214 17.2575 15.8333 17.2575H11.25C10.7897 17.2575 10.4166 16.8844 10.4166 16.4242C10.4166 15.964 10.7897 15.5909 11.25 15.5909H15.8333C16.2935 15.5909 16.6666 15.2178 16.6666 14.7575V6.42419C16.6666 5.96396 16.2935 5.59086 15.8333 5.59086H4.16663C3.70639 5.59086 3.33329 5.96396 3.33329 6.42419V7.67419C3.33329 8.13443 2.9602 8.50753 2.49996 8.50753C2.03972 8.50753 1.66663 8.13443 1.66663 7.67419V6.42419Z" fill="#777E90"/>
<path d="M3.33329 16.4242C3.33329 16.8844 2.9602 17.2575 2.49996 17.2575C2.03972 17.2575 1.66663 16.8844 1.66663 16.4242C1.66663 15.9639 2.03972 15.5908 2.49996 15.5908C2.9602 15.5908 3.33329 15.9639 3.33329 16.4242Z" fill="#777E90"/>
<path fill-rule="evenodd" clip-rule="evenodd" d="M1.66663 13.5075C1.66663 13.0473 2.03972 12.6742 2.49996 12.6742C4.57103 12.6742 6.24996 14.3531 6.24996 16.4242C6.24996 16.8844 5.87686 17.2575 5.41663 17.2575C4.95639 17.2575 4.58329 16.8844 4.58329 16.4242C4.58329 15.2736 3.65055 14.3409 2.49996 14.3409C2.03972 14.3409 1.66663 13.9678 1.66663 13.5075Z" fill="#777E90"/>
<path fill-rule="evenodd" clip-rule="evenodd" d="M1.66663 10.5908C1.66663 10.1305 2.03972 9.75745 2.49996 9.75745C6.18186 9.75745 9.16663 12.7422 9.16663 16.4241C9.16663 16.8843 8.79353 17.2574 8.33329 17.2574C7.87306 17.2574 7.49996 16.8843 7.49996 16.4241C7.49996 13.6627 5.26138 11.4241 2.49996 11.4241C2.03972 11.4241 1.66663 11.051 1.66663 10.5908Z" fill="#777E90"/>
</svg>
