<svg width="20" height="21" viewBox="0 0 20 21" fill="none" xmlns="http://www.w3.org/2000/svg">
<path fill-rule="evenodd" clip-rule="evenodd" d="M9.99996 12.2574C10.9204 12.2574 11.6666 11.5113 11.6666 10.5908C11.6666 9.6703 10.9204 8.92411 9.99996 8.92411C9.07948 8.92411 8.33329 9.6703 8.33329 10.5908C8.33329 11.5113 9.07948 12.2574 9.99996 12.2574ZM13.3333 10.5908C13.3333 12.4317 11.8409 13.9241 9.99996 13.9241C8.15901 13.9241 6.66663 12.4317 6.66663 10.5908C6.66663 8.74983 8.15901 7.25745 9.99996 7.25745C11.8409 7.25745 13.3333 8.74983 13.3333 10.5908Z" fill="#6F767E"/>
<path fill-rule="evenodd" clip-rule="evenodd" d="M9.4825 3.09086L9.15954 4.05975C8.84707 4.99716 8.16586 5.6494 7.47109 6.03625C7.42168 6.06377 7.37275 6.09207 7.32432 6.12114C6.641 6.53135 5.73422 6.79595 4.765 6.59762L3.76352 6.39268L4.09765 4.75985L5.09913 4.96479C5.57019 5.06118 6.05424 4.93967 6.46649 4.69219C6.53042 4.65381 6.59503 4.61644 6.66029 4.5801C7.07989 4.34647 7.42653 3.98831 7.5784 3.5327L7.90136 2.56381C8.12822 1.88324 8.76512 1.42419 9.4825 1.42419H10.5175C11.2349 1.42419 11.8718 1.88324 12.0986 2.56381L12.4216 3.5327C12.5734 3.98831 12.9201 4.34647 13.3397 4.5801C13.4049 4.61644 13.4695 4.65381 13.5335 4.69219C13.9457 4.93967 14.4298 5.06118 14.9008 4.96478L15.9023 4.75985C16.6051 4.61603 17.3211 4.93807 17.6798 5.55935L18.1973 6.45566C18.556 7.07693 18.4769 7.85802 18.0009 8.39477L17.3218 9.16065C17.0035 9.51957 16.8659 9.99821 16.8735 10.4778C16.8747 10.5532 16.8747 10.6285 16.8735 10.7038C16.8659 11.1835 17.0035 11.6621 17.3218 12.021L18.0009 12.7869C18.4769 13.3236 18.556 14.1047 18.1973 14.726L17.6798 15.6223C17.3211 16.2436 16.6051 16.5656 15.9023 16.4218L14.9009 16.2169C14.4298 16.1205 13.9458 16.242 13.5335 16.4895C13.4696 16.5279 13.405 16.5653 13.3397 16.6016C12.9201 16.8353 12.5734 17.1934 12.4216 17.649L12.0986 18.6179C11.8718 19.2985 11.2349 19.7575 10.5175 19.7575H9.4825C8.76512 19.7575 8.12822 19.2985 7.90136 18.6179L7.5784 17.649C7.42653 17.1934 7.07989 16.8353 6.66029 16.6016C6.59501 16.5653 6.53038 16.5279 6.46643 16.4895C6.05418 16.242 5.57013 16.1205 5.09906 16.2169L4.09765 16.4218C3.39483 16.5656 2.67883 16.2436 2.32014 15.6223L1.80266 14.726C1.44396 14.1047 1.52307 13.3236 1.99903 12.7869L3.24603 13.8927L3.76352 14.789L4.76493 14.5841C5.73417 14.3857 6.64096 14.6503 7.32428 15.0606C7.37272 15.0896 7.42167 15.1179 7.47109 15.1455C8.16586 15.5323 8.84707 16.1846 9.15954 17.122L9.4825 18.0909L10.5175 18.0909L10.8404 17.122C11.1529 16.1846 11.8341 15.5323 12.5289 15.1455C12.5783 15.1179 12.6272 15.0896 12.6757 15.0606C13.359 14.6503 14.2658 14.3857 15.235 14.5841L16.2364 14.789L16.7539 13.8927L16.0748 13.1268C15.4208 12.3893 15.1945 11.4747 15.2071 10.6774C15.208 10.6197 15.208 10.562 15.2071 10.5043C15.1945 9.707 15.4208 8.79236 16.0748 8.05487L16.7539 7.28899L16.2364 6.39268L15.235 6.59761C14.2657 6.79595 13.359 6.53135 12.6756 6.12114C12.6272 6.09207 12.5783 6.06377 12.5289 6.03625C11.8341 5.6494 11.1529 4.99716 10.8404 4.05974L10.5175 3.09086L9.4825 3.09086ZM1.99903 12.7869L3.24603 13.8927L3.92522 13.1267C4.57918 12.3893 4.80551 11.4747 4.79288 10.6774C4.79197 10.6197 4.79197 10.562 4.79288 10.5043C4.80552 9.70703 4.57919 8.7924 3.92522 8.05492L3.24603 7.28899L3.76352 6.39268L4.09765 4.75985C3.39483 4.61603 2.67883 4.93807 2.32014 5.55934L1.80266 6.45565C1.44396 7.07693 1.52306 7.85802 1.99903 8.39477L2.67822 9.1607C2.99648 9.51961 3.13402 9.99825 3.12643 10.4779C3.12523 10.5532 3.12523 10.6285 3.12642 10.7038C3.13402 11.1834 2.99647 11.6621 2.67822 12.021L1.99903 12.7869Z" fill="#6F767E"/>
</svg>
