<svg width="115" height="116" viewBox="0 0 115 116" fill="none" xmlns="http://www.w3.org/2000/svg">
<path d="M57.7221 114.696C89.0051 114.696 114.325 89.2266 114.325 57.8022C114.325 26.3777 89.0051 1 57.7221 1C26.5308 1 1.11914 26.4694 1.11914 57.8938C1.11914 89.3182 26.5308 114.696 57.7221 114.696Z" fill="white" stroke="#D6DDE8" stroke-miterlimit="10"/>
<path d="M20.6626 94H95.6626" stroke="#D6DCE8" stroke-miterlimit="10" stroke-linecap="round" stroke-linejoin="round"/>
<path d="M41.7169 18.0589L41.7169 18.0589L76.5917 28.5214L76.7354 28.0425L76.5917 28.5215C78.0193 28.9497 78.9971 30.2637 78.9971 31.7541V93.7501H66.4346V80.6876C66.4346 78.2712 64.4759 76.3126 62.0596 76.3126H54.3096C51.8933 76.3126 49.9346 78.2712 49.9346 80.6876V93.7501H37.3721V21.2916C37.3721 19.0308 39.5514 17.4093 41.7169 18.0589ZM50.4346 39.5001C49.0884 39.5001 47.9971 40.5914 47.9971 41.9376V45.8126C47.9971 47.1587 49.0884 48.2501 50.4346 48.2501H54.3096C55.6556 48.2501 56.7471 47.1588 56.7471 45.8126V41.9376C56.7471 40.5913 55.6556 39.5001 54.3096 39.5001H50.4346ZM50.4346 51.1251C49.0884 51.1251 47.9971 52.2165 47.9971 53.5626V57.4376C47.9971 58.7836 49.0884 59.8751 50.4346 59.8751H54.3096C55.6556 59.8751 56.7471 58.7836 56.7471 57.4376V53.5626C56.7471 52.2165 55.6556 51.1251 54.3096 51.1251H50.4346ZM50.4346 62.7501C49.0884 62.7501 47.9971 63.8415 47.9971 65.1876V69.0626C47.9971 70.4086 49.0884 71.5001 50.4346 71.5001H54.3096C55.6556 71.5001 56.7471 70.4086 56.7471 69.0626V65.1876C56.7471 63.8415 55.6556 62.7501 54.3096 62.7501H50.4346ZM62.0596 39.5001C60.7136 39.5001 59.6221 40.5913 59.6221 41.9376V45.8126C59.6221 47.1588 60.7136 48.2501 62.0596 48.2501H65.9346C67.2806 48.2501 68.3721 47.1588 68.3721 45.8126V41.9376C68.3721 40.5913 67.2806 39.5001 65.9346 39.5001H62.0596ZM62.0596 51.1251C60.7135 51.1251 59.6221 52.2165 59.6221 53.5626V57.4376C59.6221 58.7836 60.7135 59.8751 62.0596 59.8751H65.9346C67.2806 59.8751 68.3721 58.7836 68.3721 57.4376V53.5626C68.3721 52.2165 67.2806 51.1251 65.9346 51.1251H62.0596ZM62.0596 62.7501C60.7135 62.7501 59.6221 63.8415 59.6221 65.1876V69.0626C59.6221 70.4086 60.7135 71.5001 62.0596 71.5001H65.9346C67.2806 71.5001 68.3721 70.4086 68.3721 69.0626V65.1876C68.3721 63.8415 67.2806 62.7501 65.9346 62.7501H62.0596Z" fill="#F1F3FA" stroke="#D6DCE8"/>
<path d="M23.3096 90.875H23.8096V90.375V32.25C23.8096 30.3861 25.3206 28.875 27.1846 28.875H32.4971V93.75H21.3721C20.5782 93.75 19.9346 93.1063 19.9346 92.3125C19.9346 91.5187 20.5782 90.875 21.3721 90.875H23.3096Z" fill="#F1F3FA" stroke="#D6DCE8"/>
<path d="M94.9971 93.75H83.8721V43.8889L90.8589 47.8815C91.9106 48.4826 92.5596 49.6007 92.5596 50.812V90.375V90.875H93.0596H94.9971C95.7908 90.875 96.4346 91.5187 96.4346 92.3125C96.4346 93.1062 95.7908 93.75 94.9971 93.75Z" fill="#F1F3FA" stroke="#D6DCE8"/>
<path d="M54.8096 81.1875H61.5596V93.75H54.8096V81.1875Z" fill="#F1F3FA" stroke="#D6DCE8"/>
<path d="M94.7513 29.7641C94.7513 32.2825 92.7535 34.2781 90.2309 34.2781C87.7082 34.2781 85.7104 32.2825 85.7104 29.7641C85.7104 27.2456 87.7082 25.25 90.2309 25.25C92.7535 25.25 94.7513 27.2456 94.7513 29.7641Z" fill="#F1F3FA" stroke="#D6DCE8" stroke-width="0.5"/>
<path d="M89.9126 39.5C89.9126 40.7562 88.9188 41.75 87.6626 41.75C86.4064 41.75 85.4126 40.7562 85.4126 39.5C85.4126 38.2438 86.4064 37.25 87.6626 37.25C88.9188 37.25 89.9126 38.2438 89.9126 39.5Z" fill="#F1F3FA" stroke="#D6DCE8" stroke-width="0.5"/>
</svg>
