<svg width="20" height="20" viewBox="0 0 20 20" fill="none" xmlns="http://www.w3.org/2000/svg">
<path d="M6 6.25C5.58579 6.25 5.25 6.58579 5.25 7C5.25 7.41421 5.58579 7.75 6 7.75V6.25ZM12 7.75C12.4142 7.75 12.75 7.41421 12.75 7C12.75 6.58579 12.4142 6.25 12 6.25V7.75ZM12 6.25H6V7.75H12V6.25Z" fill="white"/>
<path d="M6 9.25C5.58579 9.25 5.25 9.58579 5.25 10C5.25 10.4142 5.58579 10.75 6 10.75V9.25ZM12 10.75C12.4142 10.75 12.75 10.4142 12.75 10C12.75 9.58579 12.4142 9.25 12 9.25V10.75ZM12 9.25H6V10.75H12V9.25Z" fill="white"/>
<path d="M6 12.25C5.58579 12.25 5.25 12.5858 5.25 13C5.25 13.4142 5.58579 13.75 6 13.75V12.25ZM9 13.75C9.41421 13.75 9.75 13.4142 9.75 13C9.75 12.5858 9.41421 12.25 9 12.25V13.75ZM9 12.25H6V13.75H9V12.25Z" fill="white"/>
<path d="M3 15.25L2.25 15.25L3 15.25ZM3.00008 4.74999L3.75008 4.75L3.00008 4.74999ZM4.99995 17L4.99994 17.75H4.99995V17ZM8.99986 17.75C9.41407 17.75 9.74986 17.4142 9.74986 17C9.74986 16.5858 9.41407 16.25 8.99986 16.25V17.75ZM15.25 9.56252C15.25 9.97673 15.5858 10.3125 16 10.3125C16.4142 10.3125 16.75 9.97673 16.75 9.56252H15.25ZM5.00003 3.75H14V2.25H5.00003V3.75ZM3.75 15.25L3.75008 4.75L2.25008 4.74999L2.25 15.25L3.75 15.25ZM2.25 15.25C2.24999 16.7216 3.57837 17.75 4.99994 17.75L4.99995 16.25C4.21243 16.25 3.75 15.7114 3.75 15.25L2.25 15.25ZM5.00003 2.25C3.57846 2.25 2.25009 3.27836 2.25008 4.74999L3.75008 4.75C3.75008 4.28864 4.21252 3.75 5.00003 3.75V2.25ZM8.99986 16.25H4.99995V17.75H8.99986V16.25ZM15.25 4.75V9.56252H16.75V4.75H15.25ZM14 3.75C14.7876 3.75 15.25 4.28864 15.25 4.75H16.75C16.75 3.27837 15.4216 2.25 14 2.25V3.75Z" fill="white"/>
<path d="M17.5291 13.5039C17.8227 13.7961 17.8238 14.271 17.5316 14.5645C17.2394 14.8581 16.7645 14.8593 16.4709 14.5671L17.5291 13.5039ZM14.9548 12L14.426 11.4681C14.7186 11.1772 15.1913 11.1773 15.4838 11.4684L14.9548 12ZM13.5288 14.4753C13.235 14.7674 12.7602 14.766 12.4681 14.4723C12.1761 14.1785 12.1775 13.7036 12.4712 13.4116L13.5288 14.4753ZM15.7048 17C15.7048 17.4142 15.369 17.75 14.9548 17.75C14.5406 17.75 14.2048 17.4142 14.2048 17H15.7048ZM16.4709 14.5671L14.4257 12.5316L15.4838 11.4684L17.5291 13.5039L16.4709 14.5671ZM15.4836 12.5319L13.5288 14.4753L12.4712 13.4116L14.426 11.4681L15.4836 12.5319ZM15.7048 12V17H14.2048V12H15.7048Z" fill="white"/>
</svg>
