<svg width="20" height="21" viewBox="0 0 20 21" fill="none" xmlns="http://www.w3.org/2000/svg">
<path d="M11.6667 15.5909C11.6667 16.5113 10.9205 17.2575 10 17.2575C9.07957 17.2575 8.33337 16.5113 8.33337 15.5909C8.33337 14.6704 9.07957 13.9242 10 13.9242C10.9205 13.9242 11.6667 14.6704 11.6667 15.5909Z" fill="#777E90"/>
<path fill-rule="evenodd" clip-rule="evenodd" d="M9.99996 12.2575C8.84723 12.2575 7.80516 12.7245 7.04992 13.4816C6.7249 13.8075 6.19726 13.8082 5.87141 13.4831C5.54556 13.1581 5.54489 12.6305 5.86992 12.3046C6.92504 11.2468 8.38668 10.5908 9.99996 10.5908C11.6132 10.5908 13.0749 11.2468 14.13 12.3046C14.455 12.6305 14.4544 13.1581 14.1285 13.4831C13.8027 13.8082 13.275 13.8075 12.95 13.4816C12.1948 12.7245 11.1527 12.2575 9.99996 12.2575Z" fill="#777E90"/>
<path fill-rule="evenodd" clip-rule="evenodd" d="M10 8.92411C7.93059 8.92411 6.05824 9.76117 4.70038 11.1172C4.37472 11.4424 3.84709 11.442 3.52187 11.1164C3.19666 10.7907 3.19702 10.2631 3.52268 9.93785C5.18026 8.28253 7.47123 7.25745 10 7.25745C12.5288 7.25745 14.8198 8.28253 16.4774 9.93785C16.803 10.2631 16.8034 10.7907 16.4782 11.1164C16.153 11.442 15.6253 11.4424 15.2997 11.1172C13.9418 9.76117 12.0695 8.92411 10 8.92411Z" fill="#777E90"/>
<path fill-rule="evenodd" clip-rule="evenodd" d="M10.0001 5.59086C7.00794 5.59086 4.30044 6.80281 2.33903 8.7646C2.01362 9.09007 1.48598 9.09012 1.16052 8.76471C0.835048 8.43931 0.834998 7.91167 1.1604 7.5862C3.42161 5.32456 6.5481 3.92419 10.0001 3.92419C13.4521 3.92419 16.5785 5.32456 18.8398 7.5862C19.1652 7.91167 19.1651 8.43931 18.8396 8.76471C18.5142 9.09012 17.9865 9.09007 17.6611 8.7646C15.6997 6.80281 12.9922 5.59086 10.0001 5.59086Z" fill="#777E90"/>
</svg>
