<svg width="16" height="16" viewBox="0 0 16 16" fill="none" xmlns="http://www.w3.org/2000/svg">
<path fill-rule="evenodd" clip-rule="evenodd" d="M4 2.66634C3.63181 2.66634 3.33333 2.96482 3.33333 3.33301V12.6663C3.33333 13.0345 3.63181 13.333 4 13.333H12C12.3682 13.333 12.6667 13.0345 12.6667 12.6663V7.99967C12.6667 7.63148 12.9651 7.33301 13.3333 7.33301C13.7015 7.33301 14 7.63148 14 7.99967V12.6663C14 13.7709 13.1046 14.6663 12 14.6663H4C2.89543 14.6663 2 13.7709 2 12.6663V3.33301C2 2.22844 2.89543 1.33301 4 1.33301H8C8.36819 1.33301 8.66667 1.63148 8.66667 1.99967C8.66667 2.36786 8.36819 2.66634 8 2.66634H4Z" fill="white"/>
<path fill-rule="evenodd" clip-rule="evenodd" d="M5.37607 7.77621C5.27408 7.87821 5.20791 8.01054 5.18751 8.15333L4.87324 10.3532C4.81039 10.7932 5.18751 11.1703 5.62749 11.1075L7.82738 10.7932C7.97017 10.7728 8.1025 10.7066 8.2045 10.6046L13.2328 5.57632C14.0139 4.79527 14.0139 3.52894 13.2328 2.7479C12.4518 1.96685 11.1854 1.96685 10.4044 2.7479L5.37607 7.77621ZM10.8758 6.04773L7.41883 9.50469L6.31888 9.66183L6.47602 8.56188L9.93298 5.10492L10.8758 6.04773ZM11.8186 5.10492L10.8758 4.16211L11.3472 3.6907C11.6075 3.43036 12.0297 3.43036 12.29 3.6907C12.5504 3.95105 12.5504 4.37316 12.29 4.63351L11.8186 5.10492Z" fill="white"/>
</svg>
