<svg width="16" height="16" viewBox="0 0 16 16" fill="none" xmlns="http://www.w3.org/2000/svg">
<path fill-rule="evenodd" clip-rule="evenodd" d="M14.6663 8.00016C14.6663 11.6821 11.6816 14.6668 7.99967 14.6668C4.31778 14.6668 1.33301 11.6821 1.33301 8.00016C1.33301 4.31826 4.31778 1.3335 7.99967 1.3335C11.6816 1.3335 14.6663 4.31826 14.6663 8.00016ZM11.2701 12.2134C10.367 12.9154 9.23215 13.3335 7.99967 13.3335C5.05416 13.3335 2.66634 10.9457 2.66634 8.00016C2.66634 6.76769 3.0844 5.63286 3.78644 4.72973L11.2701 12.2134ZM12.2129 11.2706L4.72925 3.78692C5.63237 3.08488 6.7672 2.66683 7.99967 2.66683C10.9452 2.66683 13.333 5.05464 13.333 8.00016C13.333 9.23264 12.915 10.3675 12.2129 11.2706Z" fill="#EB2E2E"/>
</svg>
