<svg width="16" height="16" viewBox="0 0 16 16" fill="none" xmlns="http://www.w3.org/2000/svg">
<g id="UI icon/note/light">
<path id="Rectangle 193 (Stroke)" fill-rule="evenodd" clip-rule="evenodd" d="M4 2.66634C3.63181 2.66634 3.33333 2.96482 3.33333 3.33301V12.6663C3.33333 13.0345 3.63181 13.333 4 13.333H12C12.3682 13.333 12.6667 13.0345 12.6667 12.6663V7.99967C12.6667 7.63148 12.9651 7.33301 13.3333 7.33301C13.7015 7.33301 14 7.63148 14 7.99967V12.6663C14 13.7709 13.1046 14.6663 12 14.6663H4C2.89543 14.6663 2 13.7709 2 12.6663V3.33301C2 2.22844 2.89543 1.33301 4 1.33301H8C8.36819 1.33301 8.66667 1.63148 8.66667 1.99967C8.66667 2.36786 8.36819 2.66634 8 2.66634H4Z" fill="white"/>
<path id="Union" fill-rule="evenodd" clip-rule="evenodd" d="M5.37592 7.77621C5.27392 7.87821 5.20776 8.01054 5.18736 8.15333L4.87309 10.3532C4.81023 10.7932 5.18736 11.1703 5.62734 11.1075L7.82722 10.7932C7.97002 10.7728 8.10235 10.7066 8.20435 10.6046L13.2327 5.57632C14.0137 4.79527 14.0137 3.52894 13.2327 2.7479C12.4516 1.96685 11.1853 1.96685 10.4042 2.7479L5.37592 7.77621ZM10.8756 6.04773L7.41867 9.50469L6.31873 9.66183L6.47586 8.56188L9.93283 5.10492L10.8756 6.04773ZM11.8184 5.10492L10.8756 4.16211L11.347 3.6907C11.6074 3.43036 12.0295 3.43036 12.2899 3.6907C12.5502 3.95105 12.5502 4.37316 12.2899 4.63351L11.8184 5.10492Z" fill="white"/>
</g>
</svg>
