<svg width="16" height="16" viewBox="0 0 16 16" fill="none" xmlns="http://www.w3.org/2000/svg">
<g id="UI icon/trash/light">
<path id="Path 38 Copy (Stroke)" fill-rule="evenodd" clip-rule="evenodd" d="M6.66667 6.66699C7.03486 6.66699 7.33333 6.96547 7.33333 7.33366V10.667C7.33333 11.0352 7.03486 11.3337 6.66667 11.3337C6.29848 11.3337 6 11.0352 6 10.667V7.33366C6 6.96547 6.29848 6.66699 6.66667 6.66699Z" fill="#EB2E2E"/>
<path id="Path 38 Copy (Stroke)_2" fill-rule="evenodd" clip-rule="evenodd" d="M9.33366 6.66699C9.70185 6.66699 10.0003 6.96547 10.0003 7.33366V10.667C10.0003 11.0352 9.70185 11.3337 9.33366 11.3337C8.96547 11.3337 8.66699 11.0352 8.66699 10.667V7.33366C8.66699 6.96547 8.96547 6.66699 9.33366 6.66699Z" fill="#EB2E2E"/>
<path id="Union" fill-rule="evenodd" clip-rule="evenodd" d="M6.66634 1.33301C5.56177 1.33301 4.66634 2.22844 4.66634 3.33301H2.66634H1.99967C1.63148 3.33301 1.33301 3.63148 1.33301 3.99967C1.33301 4.36786 1.63148 4.66634 1.99967 4.66634H2.66634V12.6663C2.66634 13.7709 3.56177 14.6663 4.66634 14.6663H11.333C12.4376 14.6663 13.333 13.7709 13.333 12.6663V4.66634H13.9997C14.3679 4.66634 14.6663 4.36786 14.6663 3.99967C14.6663 3.63148 14.3679 3.33301 13.9997 3.33301H13.333H11.333C11.333 2.22844 10.4376 1.33301 9.33301 1.33301H6.66634ZM9.99967 3.33301C9.99967 2.96482 9.7012 2.66634 9.33301 2.66634H6.66634C6.29815 2.66634 5.99967 2.96482 5.99967 3.33301H9.99967ZM4.66634 4.66634H3.99967V12.6663C3.99967 13.0345 4.29815 13.333 4.66634 13.333H11.333C11.7012 13.333 11.9997 13.0345 11.9997 12.6663V4.66634H11.333H4.66634Z" fill="#EB2E2E"/>
</g>
</svg>
