<svg width="16" height="16" viewBox="0 0 16 16" fill="none" xmlns="http://www.w3.org/2000/svg">
<path fill-rule="evenodd" clip-rule="evenodd" d="M8.66792 3.33317C8.66792 2.96498 8.36944 2.6665 8.00125 2.6665C7.63306 2.6665 7.33458 2.96498 7.33458 3.33317V8.72399L5.47264 6.86204C5.21229 6.60169 4.79018 6.60169 4.52983 6.86204C4.26948 7.12239 4.26948 7.5445 4.52983 7.80485L7.05845 10.3335C7.57915 10.8542 8.42337 10.8542 8.94407 10.3335L11.4714 7.80615C11.7317 7.5458 11.7317 7.12369 11.4714 6.86334C11.211 6.60299 10.7889 6.60299 10.5286 6.86334L8.66792 8.72401V3.33317Z" fill="white"/>
<path fill-rule="evenodd" clip-rule="evenodd" d="M2.66667 9.3335C3.03486 9.3335 3.33333 9.63197 3.33333 10.0002V11.3335C3.33333 11.7017 3.63181 12.0002 4 12.0002H12C12.3682 12.0002 12.6667 11.7017 12.6667 11.3335V10.0002C12.6667 9.63197 12.9651 9.3335 13.3333 9.3335C13.7015 9.3335 14 9.63197 14 10.0002V11.3335C14 12.4381 13.1046 13.3335 12 13.3335H4C2.89543 13.3335 2 12.4381 2 11.3335V10.0002C2 9.63197 2.29848 9.3335 2.66667 9.3335Z" fill="white"/>
</svg>
