<svg width="16" height="16" viewBox="0 0 16 16" fill="none" xmlns="http://www.w3.org/2000/svg">
<path fill-rule="evenodd" clip-rule="evenodd" d="M4 2.66659C3.63181 2.66659 3.33333 2.96506 3.33333 3.33325V12.6666C3.33333 13.0348 3.63181 13.3333 4 13.3333H12C12.3682 13.3333 12.6667 13.0348 12.6667 12.6666V7.99992C12.6667 7.63173 12.9651 7.33325 13.3333 7.33325C13.7015 7.33325 14 7.63173 14 7.99992V12.6666C14 13.7712 13.1046 14.6666 12 14.6666H4C2.89543 14.6666 2 13.7712 2 12.6666V3.33325C2 2.22868 2.89543 1.33325 4 1.33325H8C8.36819 1.33325 8.66667 1.63173 8.66667 1.99992C8.66667 2.36811 8.36819 2.66659 8 2.66659H4Z" fill="white"/>
<path fill-rule="evenodd" clip-rule="evenodd" d="M5.37592 7.77597C5.27392 7.87796 5.20776 8.01029 5.18736 8.15309L4.87309 10.353C4.81023 10.793 5.18736 11.1701 5.62734 11.1072L7.82722 10.793C7.97002 10.7726 8.10235 10.7064 8.20435 10.6044L13.2327 5.57608C14.0137 4.79503 14.0137 3.5287 13.2327 2.74765C12.4516 1.9666 11.1853 1.9666 10.4042 2.74765L5.37592 7.77597ZM10.8756 6.04749L7.41867 9.50445L6.31873 9.66158L6.47586 8.56164L9.93283 5.10468L10.8756 6.04749ZM11.8184 5.10468L10.8756 4.16187L11.347 3.69046C11.6074 3.43011 12.0295 3.43011 12.2899 3.69046C12.5502 3.95081 12.5502 4.37292 12.2899 4.63327L11.8184 5.10468Z" fill="white"/>
</svg>
