<svg width="20" height="21" viewBox="0 0 20 21" fill="none" xmlns="http://www.w3.org/2000/svg">
<path fill-rule="evenodd" clip-rule="evenodd" d="M15 13.0909H5C4.53976 13.0909 4.16667 13.464 4.16667 13.9242V16.4242C4.16667 16.8844 4.53976 17.2575 5 17.2575H15C15.4602 17.2575 15.8333 16.8844 15.8333 16.4242V13.9242C15.8333 13.464 15.4602 13.0909 15 13.0909ZM5 11.4242C3.61929 11.4242 2.5 12.5435 2.5 13.9242V16.4242C2.5 17.8049 3.61929 18.9242 5 18.9242H15C16.3807 18.9242 17.5 17.8049 17.5 16.4242V13.9242C17.5 12.5435 16.3807 11.4242 15 11.4242H5Z" fill="#777E90"/>
<path fill-rule="evenodd" clip-rule="evenodd" d="M15 3.92411H5C4.53976 3.92411 4.16667 4.29721 4.16667 4.75745V7.25745C4.16667 7.71768 4.53976 8.09078 5 8.09078H15C15.4602 8.09078 15.8333 7.71768 15.8333 7.25745V4.75745C15.8333 4.29721 15.4602 3.92411 15 3.92411ZM5 2.25745C3.61929 2.25745 2.5 3.37673 2.5 4.75745V7.25745C2.5 8.63816 3.61929 9.75745 5 9.75745H15C16.3807 9.75745 17.5 8.63816 17.5 7.25745V4.75745C17.5 3.37673 16.3807 2.25745 15 2.25745H5Z" fill="#777E90"/>
<path fill-rule="evenodd" clip-rule="evenodd" d="M5.41663 15.1742C5.41663 14.7139 5.78972 14.3408 6.24996 14.3408H10.8333C11.2935 14.3408 11.6666 14.7139 11.6666 15.1742C11.6666 15.6344 11.2935 16.0075 10.8333 16.0075H6.24996C5.78972 16.0075 5.41663 15.6344 5.41663 15.1742Z" fill="#777E90"/>
<path fill-rule="evenodd" clip-rule="evenodd" d="M5.41663 6.00753C5.41663 5.54729 5.78972 5.17419 6.24996 5.17419H10.8333C11.2935 5.17419 11.6666 5.54729 11.6666 6.00753C11.6666 6.46776 11.2935 6.84086 10.8333 6.84086H6.24996C5.78972 6.84086 5.41663 6.46776 5.41663 6.00753Z" fill="#777E90"/>
<path d="M14.5833 15.1742C14.5833 15.6344 14.2102 16.0075 13.75 16.0075C13.2897 16.0075 12.9166 15.6344 12.9166 15.1742C12.9166 14.7139 13.2897 14.3408 13.75 14.3408C14.2102 14.3408 14.5833 14.7139 14.5833 15.1742Z" fill="#777E90"/>
<path d="M14.5833 6.00753C14.5833 6.46776 14.2102 6.84086 13.75 6.84086C13.2897 6.84086 12.9166 6.46776 12.9166 6.00753C12.9166 5.54729 13.2897 5.17419 13.75 5.17419C14.2102 5.17419 14.5833 5.54729 14.5833 6.00753Z" fill="#777E90"/>
</svg>
