<svg width="132" height="54" viewBox="0 0 132 54" fill="none" xmlns="http://www.w3.org/2000/svg">
<path d="M73.2309 15.828C71.6887 15.828 70.4844 14.6007 69.7824 13.2275C69.3368 12.3559 68.6998 11.6152 67.8714 11.0052C66.3151 9.85938 64.203 9.28646 61.535 9.28646C59.7222 9.28646 58.1916 9.54299 56.9431 10.0561C55.6947 10.552 54.7369 11.2447 54.0699 12.134C53.4201 13.0233 53.0951 14.0323 53.0951 15.161C53.0609 16.1017 53.2576 16.9226 53.6851 17.6238C54.1298 18.3249 54.7369 18.9321 55.5065 19.4451C56.2761 19.9411 57.1654 20.3772 58.1745 20.7534C59.1835 21.1126 60.2609 21.4204 61.4068 21.677L66.127 22.8057C68.4186 23.3188 70.5222 24.0029 72.4376 24.858C74.3531 25.7131 76.012 26.7648 77.4144 28.0133C78.8167 29.2618 79.9027 30.7325 80.6723 32.4257C81.459 34.1188 81.8609 36.0599 81.878 38.2489C81.8609 41.4641 81.04 44.2518 79.4153 46.6119C77.8077 48.9549 75.4818 50.7762 72.4376 52.076C69.4106 53.3587 65.7593 54 61.4837 54C57.2424 54 53.5483 53.3501 50.4015 52.0504C47.2718 50.7506 44.8262 48.8266 43.0647 46.2784C41.8125 44.4369 40.9877 42.2826 40.5903 39.8154C40.3226 38.1534 41.705 36.761 43.3885 36.761H48.2655C49.8434 36.761 51.0748 38.0226 51.6492 39.4923C51.8892 40.1063 52.2002 40.6666 52.5821 41.1734C53.4885 42.3363 54.6942 43.2171 56.1992 43.8157C57.7213 44.3972 59.44 44.6879 61.3555 44.6879C63.2367 44.6879 64.8699 44.4143 66.2552 43.867C67.6576 43.3197 68.7436 42.5587 69.5132 41.5838C70.2828 40.609 70.6676 39.4888 70.6676 38.2233C70.6676 37.0432 70.317 36.0513 69.6158 35.2475C68.9317 34.4437 67.9227 33.7596 66.5887 33.1952C65.2718 32.6309 63.6557 32.1178 61.7403 31.6561L56.0196 30.2195C51.5901 29.142 48.0927 27.4575 45.5274 25.1658C42.9621 22.8741 41.688 19.7872 41.7051 15.905C41.688 12.724 42.5346 9.94489 44.2448 7.5677C45.9721 5.1905 48.3407 3.33492 51.3507 2.00095C54.3607 0.666983 57.7811 0 61.612 0C65.5113 0 68.9146 0.666983 71.822 2.00095C74.7464 3.33492 77.021 5.1905 78.6457 7.5677C79.7242 9.14574 80.4561 10.8896 80.8413 12.7992C81.1727 14.4422 79.7862 15.828 78.1101 15.828H73.2309Z" fill="#4484FF"/>
<path d="M105.502 52.5378H89.878C88.2212 52.5378 86.878 51.1946 86.878 49.5378V3C86.878 1.34315 88.2212 0 89.878 0H105.656C110.941 0 115.49 1.05178 119.304 3.15535C123.117 5.2418 126.05 8.24323 128.103 12.1596C130.172 16.076 131.207 20.762 131.207 26.2176C131.207 31.6903 130.172 36.3933 128.103 40.3268C126.05 44.2603 123.1 47.2789 119.252 49.3824C115.421 51.486 110.838 52.5378 105.502 52.5378ZM97.9859 40.0204C97.9859 41.6773 99.329 43.0204 100.986 43.0204H105.04C108.324 43.0204 111.086 42.4389 113.326 41.276C115.584 40.096 117.277 38.2746 118.406 35.8119C119.552 33.3321 120.125 30.134 120.125 26.2176C120.125 22.3354 119.552 19.1629 118.406 16.7002C117.277 14.2375 115.593 12.4247 113.352 11.2618C111.112 10.0988 108.35 9.51734 105.066 9.51734H100.986C99.329 9.51734 97.9859 10.8605 97.9859 12.5173V40.0204Z" fill="#4484FF"/>
<path d="M3 52.5378C1.34315 52.5378 0 51.1946 0 49.5378V3C0 1.34315 1.34315 0 3 0H32.4014C34.0583 0 35.4014 1.34315 35.4014 3V6.15819C35.4014 7.81505 34.0583 9.15819 32.4014 9.15819H14.1078C12.451 9.15819 11.1078 10.5013 11.1078 12.1582V18.677C11.1078 20.3338 12.451 21.677 14.1078 21.677H30.58C32.2369 21.677 33.58 23.0201 33.58 24.677V27.8352C33.58 29.492 32.2369 30.8352 30.58 30.8352H14.1078C12.451 30.8352 11.1078 32.1783 11.1078 33.8352V40.3796C11.1078 42.0364 12.451 43.3796 14.1078 43.3796H32.504C34.1609 43.3796 35.504 44.7227 35.504 46.3796V49.5378C35.504 51.1946 34.1609 52.5378 32.504 52.5378H3Z" fill="#4484FF"/>
</svg>
