<svg width="132" height="54" viewBox="0 0 132 54" fill="none" xmlns="http://www.w3.org/2000/svg">
<path d="M122.376 15.828C120.834 15.828 119.63 14.6007 118.928 13.2275C118.482 12.3559 117.845 11.6152 117.017 11.0052C115.46 9.85938 113.348 9.28646 110.68 9.28646C108.867 9.28646 107.337 9.54299 106.088 10.0561C104.84 10.552 103.882 11.2447 103.215 12.134C102.565 13.0233 102.24 14.0323 102.24 15.161C102.206 16.1017 102.403 16.9226 102.83 17.6238C103.275 18.3249 103.882 18.9321 104.652 19.4451C105.421 19.9411 106.311 20.3772 107.32 20.7534C108.329 21.1126 109.406 21.4204 110.552 21.677L115.272 22.8057C117.564 23.3188 119.667 24.0029 121.583 24.858C123.498 25.7131 125.157 26.7648 126.56 28.0133C127.962 29.2618 129.048 30.7325 129.818 32.4257C130.604 34.1188 131.006 36.0599 131.023 38.2489C131.006 41.4641 130.185 44.2518 128.561 46.6119C126.953 48.9549 124.627 50.7762 121.583 52.076C118.556 53.3587 114.905 54 110.629 54C106.388 54 102.694 53.3501 99.5468 52.0504C96.4171 50.7506 93.9715 48.8266 92.21 46.2784C90.9578 44.4369 90.133 42.2826 89.7356 39.8154C89.4679 38.1534 90.8503 36.761 92.5338 36.761H97.4108C98.9887 36.761 100.22 38.0226 100.795 39.4923C101.035 40.1063 101.345 40.6666 101.727 41.1734C102.634 42.3363 103.839 43.2171 105.344 43.8157C106.867 44.3972 108.585 44.6879 110.501 44.6879C112.382 44.6879 114.015 44.4143 115.401 43.867C116.803 43.3197 117.889 42.5587 118.658 41.5838C119.428 40.609 119.813 39.4888 119.813 38.2233C119.813 37.0432 119.462 36.0513 118.761 35.2475C118.077 34.4437 117.068 33.7596 115.734 33.1952C114.417 32.6309 112.801 32.1178 110.886 31.6561L105.165 30.2195C100.735 29.142 97.238 27.4575 94.6727 25.1658C92.1074 22.8741 90.8333 19.7872 90.8504 15.905C90.8333 12.724 91.6799 9.94489 93.3901 7.5677C95.1174 5.1905 97.486 3.33492 100.496 2.00095C103.506 0.666983 106.926 0 110.757 0C114.657 0 118.06 0.666983 120.967 2.00095C123.892 3.33492 126.166 5.1905 127.791 7.5677C128.87 9.14574 129.601 10.8896 129.987 12.7992C130.318 14.4422 128.932 15.828 127.255 15.828H122.376Z" fill="#4484FF"/>
<path d="M58.944 52.5378H43.3198C41.663 52.5378 40.3198 51.1946 40.3198 49.5378V3C40.3198 1.34315 41.663 0 43.3198 0H59.098C64.3825 0 68.9317 1.05178 72.7455 3.15535C76.5592 5.2418 79.4923 8.24323 81.5445 12.1596C83.6139 16.076 84.6486 20.762 84.6486 26.2176C84.6486 31.6903 83.6139 36.3933 81.5445 40.3268C79.4923 44.2603 76.5421 47.2789 72.6942 49.3824C68.8633 51.486 64.2799 52.5378 58.944 52.5378ZM51.4277 40.0204C51.4277 41.6773 52.7708 43.0204 54.4277 43.0204H58.4823C61.7659 43.0204 64.5279 42.4389 66.7683 41.276C69.0258 40.096 70.7189 38.2746 71.8476 35.8119C72.9934 33.3321 73.5664 30.134 73.5664 26.2176C73.5664 22.3354 72.9934 19.1629 71.8476 16.7002C70.7189 14.2375 69.0343 12.4247 66.7939 11.2618C64.5535 10.0988 61.7916 9.51734 58.5079 9.51734H54.4277C52.7708 9.51734 51.4277 10.8605 51.4277 12.5173V40.0204Z" fill="#4484FF"/>
<path d="M3 52.5378C1.34315 52.5378 0 51.1946 0 49.5378V3C0 1.34315 1.34315 0 3 0H32.4014C34.0583 0 35.4014 1.34315 35.4014 3V6.15819C35.4014 7.81505 34.0583 9.15819 32.4014 9.15819H14.1078C12.451 9.15819 11.1078 10.5013 11.1078 12.1582V18.677C11.1078 20.3338 12.451 21.677 14.1078 21.677H30.58C32.2369 21.677 33.58 23.0201 33.58 24.677V27.8352C33.58 29.492 32.2369 30.8352 30.58 30.8352H14.1078C12.451 30.8352 11.1078 32.1783 11.1078 33.8352V40.3796C11.1078 42.0364 12.451 43.3796 14.1078 43.3796H32.504C34.1609 43.3796 35.504 44.7227 35.504 46.3796V49.5378C35.504 51.1946 34.1609 52.5378 32.504 52.5378H3Z" fill="#4484FF"/>
</svg>
