<svg width="20" height="21" viewBox="0 0 20 21" fill="none" xmlns="http://www.w3.org/2000/svg">
<path fill-rule="evenodd" clip-rule="evenodd" d="M10 8.92411C11.3808 8.92411 12.5 7.80482 12.5 6.42411C12.5 5.0434 11.3808 3.92411 10 3.92411C8.61933 3.92411 7.50004 5.0434 7.50004 6.42411C7.50004 7.80482 8.61933 8.92411 10 8.92411ZM10 10.5908C12.3012 10.5908 14.1667 8.7253 14.1667 6.42411C14.1667 4.12293 12.3012 2.25745 10 2.25745C7.69885 2.25745 5.83337 4.12293 5.83337 6.42411C5.83337 8.7253 7.69885 10.5908 10 10.5908Z" fill="#777E90"/>
<path fill-rule="evenodd" clip-rule="evenodd" d="M7.5 13.9241C5.65905 13.9241 4.16667 15.4165 4.16667 17.2574V18.0908C4.16667 18.551 3.79357 18.9241 3.33333 18.9241C2.8731 18.9241 2.5 18.551 2.5 18.0908V17.2574C2.5 14.496 4.73858 12.2574 7.5 12.2574H12.5C15.2614 12.2574 17.5 14.496 17.5 17.2574V18.0908C17.5 18.551 17.1269 18.9241 16.6667 18.9241C16.2064 18.9241 15.8333 18.551 15.8333 18.0908V17.2574C15.8333 15.4165 14.3409 13.9241 12.5 13.9241H7.5Z" fill="#777E90"/>
</svg>
