<svg width="20" height="21" viewBox="0 0 20 21" fill="none" xmlns="http://www.w3.org/2000/svg">
<path fill-rule="evenodd" clip-rule="evenodd" d="M9.99996 10.5908C10.9204 10.5908 11.6666 9.84459 11.6666 8.92411C11.6666 8.00364 10.9204 7.25745 9.99996 7.25745C9.07948 7.25745 8.33329 8.00364 8.33329 8.92411C8.33329 9.84459 9.07948 10.5908 9.99996 10.5908ZM9.99996 12.2574C11.8409 12.2574 13.3333 10.7651 13.3333 8.92411C13.3333 7.08316 11.8409 5.59078 9.99996 5.59078C8.15901 5.59078 6.66663 7.08316 6.66663 8.92411C6.66663 10.7651 8.15901 12.2574 9.99996 12.2574Z" fill="#777E90"/>
<path fill-rule="evenodd" clip-rule="evenodd" d="M15.4657 16.8815C17.2226 15.3536 18.3333 13.1019 18.3333 10.5908C18.3333 5.98841 14.6023 2.25745 9.99996 2.25745C5.39759 2.25745 1.66663 5.98841 1.66663 10.5908C1.66663 13.1019 2.77733 15.3536 4.53426 16.8815C5.9974 18.1538 7.90873 18.9241 9.99996 18.9241C12.0135 18.9241 13.8602 18.21 15.3007 17.0212C15.3563 16.9753 15.4113 16.9287 15.4657 16.8815ZM10.2149 17.254C10.1435 17.2563 10.0719 17.2574 9.99996 17.2574C9.99277 17.2574 9.98558 17.2574 9.97839 17.2574C9.91136 17.2572 9.84457 17.256 9.77801 17.2538C8.65944 17.2172 7.61057 16.9051 6.69708 16.3831C7.4598 15.3934 8.65679 14.7574 9.99996 14.7574C11.3431 14.7574 12.5401 15.3934 13.3028 16.3831C12.3874 16.9062 11.3361 17.2185 10.2149 17.254ZM14.6353 15.3822C13.5693 13.9892 11.8895 13.0908 9.99996 13.0908C8.11037 13.0908 6.43063 13.9892 5.36461 15.3822C4.11202 14.1702 3.33329 12.4714 3.33329 10.5908C3.33329 6.90888 6.31806 3.92411 9.99996 3.92411C13.6819 3.92411 16.6666 6.90888 16.6666 10.5908C16.6666 12.4714 15.8879 14.1702 14.6353 15.3822Z" fill="#777E90"/>
</svg>
