<svg width="20" height="21" viewBox="0 0 20 21" fill="none" xmlns="http://www.w3.org/2000/svg">
<path fill-rule="evenodd" clip-rule="evenodd" d="M4.77699 5.59086L7.49996 5.59086C7.49996 4.67039 8.24615 3.92419 9.16663 3.92419H10.8333C11.7538 3.92419 12.5 4.67039 12.5 5.59086H15.2229C15.5111 5.09269 16.0497 4.75753 16.6666 4.75753C17.5871 4.75753 18.3333 5.50372 18.3333 6.42419C18.3333 7.34467 17.5871 8.09086 16.6666 8.09086C16.0497 8.09086 15.5111 7.7557 15.2229 7.25753H14.0825C15.1629 8.31629 15.8333 9.79193 15.8333 11.4242V12.2575C16.7538 12.2575 17.5 13.0037 17.5 13.9242V15.5909C17.5 16.5113 16.7538 17.2575 15.8333 17.2575H14.1666C13.2462 17.2575 12.5 16.5113 12.5 15.5909V13.9242C12.5 13.0037 13.2462 12.2575 14.1666 12.2575V11.4242C14.1666 9.98961 13.4417 8.72439 12.3381 7.97487C12.07 8.5363 11.4969 8.92419 10.8333 8.92419H9.16663C8.50297 8.92419 7.92992 8.5363 7.6618 7.97487C6.55826 8.72439 5.83329 9.98961 5.83329 11.4242V12.2575C6.75377 12.2575 7.49996 13.0037 7.49996 13.9242V15.5909C7.49996 16.5113 6.75377 17.2575 5.83329 17.2575H4.16663C3.24615 17.2575 2.49996 16.5113 2.49996 15.5909V13.9242C2.49996 13.0037 3.24615 12.2575 4.16663 12.2575V11.4242C4.16663 9.79193 4.837 8.31629 5.91743 7.25753H4.77699C4.48881 7.7557 3.95019 8.09086 3.33329 8.09086C2.41282 8.09086 1.66663 7.34467 1.66663 6.42419C1.66663 5.50372 2.41282 4.75753 3.33329 4.75753C3.95019 4.75753 4.48881 5.09269 4.77699 5.59086ZM10.8333 5.59086H9.16663V7.25753H10.8333V5.59086ZM5.83329 13.9242H4.16663V15.5909H5.83329V13.9242ZM14.1666 13.9242H15.8333V15.5909H14.1666V13.9242Z" fill="#777E90"/>
</svg>
