<svg width="20" height="21" viewBox="0 0 20 21" fill="none" xmlns="http://www.w3.org/2000/svg">
<path d="M12.0831 9.73173C13.7276 9.52681 15.0001 8.12408 15.0001 6.42415C15.0001 4.72422 13.7276 3.3215 12.0831 3.11658C12.8612 3.99803 13.3334 5.15595 13.3334 6.42415C13.3334 7.69235 12.8612 8.85028 12.0831 9.73173Z" fill="#777E90"/>
<path d="M16.6666 17.2575C16.6666 17.7177 17.0397 18.0908 17.4999 18.0908C17.9602 18.0908 18.3333 17.7177 18.3333 17.2575V15.5908C18.3333 13.3741 16.6022 11.5617 14.4181 11.4316C15.2948 12.2081 15.9656 13.212 16.3379 14.3508C16.5471 14.7163 16.6666 15.1396 16.6666 15.5908V17.2575Z" fill="#777E90"/>
<path fill-rule="evenodd" clip-rule="evenodd" d="M5.83329 13.0909C4.45258 13.0909 3.33329 14.2101 3.33329 15.5909V17.2575C3.33329 17.7178 2.9602 18.0909 2.49996 18.0909C2.03972 18.0909 1.66663 17.7178 1.66663 17.2575V15.5909C1.66663 13.2897 3.53211 11.4242 5.83329 11.4242H10.8333C13.1345 11.4242 15 13.2897 15 15.5909V17.2575C15 17.7178 14.6269 18.0909 14.1666 18.0909C13.7064 18.0909 13.3333 17.7178 13.3333 17.2575V15.5909C13.3333 14.2101 12.214 13.0909 10.8333 13.0909H5.83329Z" fill="#777E90"/>
<path fill-rule="evenodd" clip-rule="evenodd" d="M8.33333 4.75749C7.41286 4.75749 6.66667 5.50368 6.66667 6.42415C6.66667 7.34463 7.41286 8.09082 8.33333 8.09082C9.25381 8.09082 10 7.34463 10 6.42415C10 5.50368 9.25381 4.75749 8.33333 4.75749ZM5 6.42415C5 4.5832 6.49238 3.09082 8.33333 3.09082C10.1743 3.09082 11.6667 4.5832 11.6667 6.42415C11.6667 8.2651 10.1743 9.75749 8.33333 9.75749C6.49238 9.75749 5 8.2651 5 6.42415Z" fill="#777E90"/>
</svg>
