<svg width="20" height="21" viewBox="0 0 20 21" fill="none" xmlns="http://www.w3.org/2000/svg">
<path d="M14.825 19.5408H5.17496C2.89163 19.5408 1.04163 17.6825 1.04163 15.3991V9.22412C1.04163 8.09079 1.74163 6.66579 2.64163 5.96579L7.13329 2.46579C8.48329 1.41579 10.6416 1.36579 12.0416 2.34912L17.1916 5.95746C18.1833 6.64912 18.9583 8.13246 18.9583 9.34079V15.4075C18.9583 17.6825 17.1083 19.5408 14.825 19.5408ZM7.89996 3.44912L3.40829 6.94912C2.81663 7.41579 2.29163 8.47412 2.29163 9.22412V15.3991C2.29163 16.9908 3.58329 18.2908 5.17496 18.2908H14.825C16.4166 18.2908 17.7083 16.9991 17.7083 15.4075V9.34079C17.7083 8.54079 17.1333 7.43246 16.475 6.98246L11.325 3.37412C10.375 2.70746 8.80829 2.74079 7.89996 3.44912Z" fill="white"/>
<path d="M6.24999 14.9657C6.09166 14.9657 5.93333 14.9074 5.80833 14.7824C5.56666 14.5407 5.56666 14.1407 5.80833 13.8991L8.47499 11.2324C8.60833 11.0991 8.78333 11.0324 8.97499 11.0491C9.15833 11.0657 9.32499 11.1657 9.43333 11.3241L10.3417 12.6907L13.3 9.7324C13.5417 9.49073 13.9417 9.49073 14.1833 9.7324C14.425 9.97406 14.425 10.3741 14.1833 10.6157L10.6833 14.1157C10.55 14.2491 10.375 14.3157 10.1833 14.2991C9.99999 14.2824 9.83333 14.1824 9.72499 14.0241L8.81666 12.6574L6.69166 14.7824C6.56666 14.9074 6.40833 14.9657 6.24999 14.9657Z" fill="white"/>
<path d="M13.75 12.4658C13.4084 12.4658 13.125 12.1825 13.125 11.8408V10.7991H12.0834C11.7417 10.7991 11.4584 10.5158 11.4584 10.1741C11.4584 9.83247 11.7417 9.54913 12.0834 9.54913H13.75C14.0917 9.54913 14.375 9.83247 14.375 10.1741V11.8408C14.375 12.1825 14.0917 12.4658 13.75 12.4658Z" fill="white"/>
</svg>
